<?xml version="1.0" encoding="utf-8"?>
<!-- Generator: Adobe Illustrator 18.0.0, SVG Export Plug-In . SVG Version: 6.00 Build 0)  -->
<!DOCTYPE svg PUBLIC "-//W3C//DTD SVG 1.1//EN" "http://www.w3.org/Graphics/SVG/1.1/DTD/svg11.dtd">
<svg version="1.1" id="Layer_1" xmlns="http://www.w3.org/2000/svg" xmlns:xlink="http://www.w3.org/1999/xlink" x="0px" y="0px"
	 viewBox="0 0 1400 980" enable-background="new 0 0 1400 980" xml:space="preserve">
<g>
	<g>
		<path fill="#00334A" d="M700,513.2c-108.3,0-196,87.8-196,196s87.8,196,196,196s196-87.8,196-196S808.3,513.2,700,513.2z
			 M700,888.2c-98.9,0-179-80.1-179-179s80.1-179,179-179s179,80.1,179,179S798.9,888.2,700,888.2z"/>
		<g>
			<path fill="#46A368" d="M535,664.3c-3.9,14.3-6,29.4-6,44.9c0,0.2,0,0.3,0,0.5l58-18.5L535,664.3z"/>
			<path fill="#98CB50" d="M649.6,723.5L604.2,700l-74.5,23.8c1,12.3,3.4,24.3,6.9,35.7L649.6,723.5z"/>
			<path fill="#98CB50" d="M586.7,581.2l97.5,50.3v-34.5c0-12.1-6.8-23.2-17.6-28.8l-32.5-16.8C616.7,558.8,600.7,568.9,586.7,581.2
				z"/>
			<path fill="#46A368" d="M610.4,608.7l-34-17.5c-10.5,11-19.6,23.4-26.9,37L610.4,608.7z"/>
			<path fill="#00334A" d="M666.7,732.3l-125.6,40.1c13.9,34.9,38.9,64.1,70.7,83.3c31.8,19.2,72.5-3.8,72.5-41v-53.6
				C684.3,749,677.5,737.9,666.7,732.3L666.7,732.3z"/>
			<path fill="#98CB50" d="M684.3,562v-23c-11.2,1-22,3.1-32.5,6.2L684.3,562z"/>
			<path fill="#98CB50" d="M666.7,637.8l-39.3-20.3L541.6,645c-0.8,2-1.6,4.1-2.4,6.2L684.3,726v-59.4
				C684.3,654.5,677.5,643.4,666.7,637.8z"/>
		</g>
		<g>
			<path fill="#98CB50" d="M858.4,645l-85.9-27.4l-39.3,20.3c-10.8,5.6-17.6,16.7-17.6,28.8V726l145.1-74.9
				C860,649.1,859.3,647,858.4,645z"/>
			<path fill="#98CB50" d="M715.7,631.6l97.5-50.3c-14-12.4-30-22.5-47.4-29.8l-32.5,16.8c-10.8,5.6-17.6,16.7-17.6,28.8V631.6z"/>
			<path fill="#46A368" d="M850.5,628.2c-7.3-13.5-16.4-26-26.9-37l-34,17.5L850.5,628.2z"/>
			<path fill="#98CB50" d="M748.2,545.2c-10.5-3.1-21.3-5.2-32.5-6.2v23L748.2,545.2z"/>
			<path fill="#00334A" d="M733.3,732.3L733.3,732.3c-10.8,5.6-17.6,16.7-17.6,28.8v53.6c0,37.2,40.6,60.2,72.5,41
				c31.8-19.2,56.8-48.4,70.7-83.3L733.3,732.3z"/>
			<path fill="#98CB50" d="M870.3,723.8L795.8,700l-45.4,23.4l113,36.1C866.9,748.1,869.3,736.1,870.3,723.8z"/>
			<path fill="#46A368" d="M865,664.3l-52,26.9l58,18.5c0-0.2,0-0.3,0-0.5C870.9,693.7,868.8,678.6,865,664.3z"/>
		</g>
	</g>
	<g>
		<path fill="#00334A" d="M830.1,85.9H569.9c-29.5,0-53.4,23.9-53.4,53.4v260.2c0,29.5,23.9,53.4,53.4,53.4h260.2
			c29.5,0,53.4-23.9,53.4-53.4V139.3C883.6,109.8,859.6,85.9,830.1,85.9z M868.1,399.6c0,20.9-17,38-38,38H569.9
			c-20.9,0-38-17-38-38V139.3c0-20.9,17-38,38-38h260.2c20.9,0,38,17,38,38V399.6z"/>
		<path fill="#98CB50" d="M830.1,111.7H569.9c-15.3,0-27.7,12.4-27.7,27.7v196.5c0,15,8.6,28.7,22.1,35
			c39.9,18.9,86.2,29.7,135.7,29.7s95.8-10.8,135.7-29.7c13.5-6.4,22.1-20.1,22.1-35V139.3C857.8,124.1,845.4,111.7,830.1,111.7z"/>
		<path fill="#46A368" d="M830.1,111.7H702.7v288.8c48.5-0.4,93.9-11.1,133.1-29.7c13.5-6.4,22.1-20.1,22.1-35V139.3
			C857.8,124.1,845.4,111.7,830.1,111.7z"/>
		<g>
			<path fill="#00334A" d="M623,149.1C623,149.1,623,149,623,149.1C623,149.1,623,149.1,623,149.1z"/>
			<path fill="#00334A" d="M595.5,113c-0.1,0-0.1,0-0.1,0C595.4,112.9,595.5,112.9,595.5,113z"/>
			<path fill="#00334A" d="M801.8,149.5c0.8,0.1,1.5,0.2,2.3,0.4C804.1,149.9,803.3,149.7,801.8,149.5z"/>
			<path fill="#00334A" d="M545.5,348.6c0-0.1,0.1-0.1,0.1-0.2C545.6,348.5,545.5,348.6,545.5,348.6z"/>
			<path fill="#00334A" d="M857.8,221.5c-8.6,1.7-32.5,7.5-59.8,21.8c8.7-1.6,20.5-2.7,32.8,0c7.4-0.8,17.3-2.6,27-6.8v4.4
				c-5,2.2-10.8,4-17.6,5.3c6.1,2.4,12,5.9,17.6,11v1.6c-10.8-6.9-36.5-18.2-77.8-5c-10.2,6.5-20.5,14.3-30.3,23.6
				c21.2-0.9,36.6,5.5,47.6,14c9.5,2.5,35.5,6.9,55.8-13.4c0,0-4.9,11.4-21.2,17.3c8.6,10.6,17.8,15.7,25.9,17.9v3.4
				c-15.4-3.3-27.2-15.9-30.6-19.9c-6,1.6-13.1,2.4-21.8,2c12.5,13.1,16.7,27.4,16.7,27.4c-28.9-45.3-64.6-44.5-79.5-41.8
				c-10,10.4-19.5,22.3-27.7,36.2l1,20.7c7.7-9.8,18.7-19.8,32.9-23.2c6.5-8.6,7.5-21.6,7.5-21.6c3.1,9.2,1.8,16.1,0.2,20.4
				c10-0.7,21.4,2,34.3,9.8c-4-2.1-33.9-16.7-62.3,10.3c6,4.8,26,18,57.4,10.5c0,0-23.8,17.1-61.7-6c-2.6,2.9-5.2,6.2-7.7,9.9
				l3.8,76l2.5,19.7l-40.2-0.4l2.6-19.2l3.2-61.7c-10.5-0.6-38.7-6.1-55.2-46.3c0.5,0.9,8.8,16.3,26,28.3
				c0.2-21.5-16-47.6-14.6-45.8c20.3,25.5,22.4,43.4,22.3,50.5c6.3,3.4,13.6,6.2,21.8,7.9L691,314c-6.9-9-20.5-22.9-41.9-29.2
				c-14.6,1.6-27.4,4.9-38.6,9.3c-2.8,5.8-13,31,2,59.1c0,0-20.2-19.6-8.5-56.4c-40.2,18-56.9,48.7-58.3,51.6
				c8-17.7,18.8-30.6,30.2-40.1c-14.7,3.7-25.6,2.2-33.6-1.3v-3.2c15.1,6.4,31,2.8,40.7-0.8c22.7-15.9,46.5-19.5,55.7-20.3
				c-4.7-0.7-9.7-1-15-0.9c-22.6,0.6-46.1-5-66.8-16.8c-5.2-0.9-10.1-1.6-14.6-2v-4.2c2.7,0.4,4.9,0.8,6.7,1.2
				c-2.3-1.5-4.5-3.2-6.7-4.9v-5.8c10,6.9,22.7,13.8,38,18.9c-35.7-32.2-34.1-83-34.1-83c2.5,15.3,6.3,28.2,10.7,39
				c3.7-4.8,17.7-25.3,9.7-52.7c0.5,0.9,13.5,25.3-7.4,57.9c10.8,23.6,24.4,36.4,32,42c9.2,2.3,19.2,3.9,29.9,4.4
				c1.2,0.1,2.5,0.1,3.7,0.2c-5.2-6.4-30.3-40.1-22.7-90.1c0,0-0.4,19.9,6,43.5c22.3-29.5,16.1-73.8,15.1-79.7
				c10,52.6-7.8,81.2-12.7,87.8c4.4,13.4,11.2,27.3,21.5,39.1c35.1,3.4,52,14.1,59.9,22.4l1-19.8c-16.1-50.5-53.7-60.9-57.1-61.8
				c40.4,7.1,53.8,34.7,57.9,47.3l1.4-27.4c-2.8-16.5-6.9-30.9-11.8-43.3c-5.3-5.2-20.1-17.5-39.8-15.4c0,0,19.4-8.5,36.1,6.6
				c-10-21.6-22.6-36.9-34.9-47.6c-38.9,11.2-66.8-3-66.8-3c34.1,10.6,58.2,1.7,62.8-0.3c-21.5-17-41.4-20.8-44.6-21.3
				c22,2.8,39.4,11.3,53,22.8c-2.1-8-2.8-16.3-2.6-24.1h3.3c1,15.2,4.6,25.7,7,31.2c24.4,24.9,34.9,58.7,39.2,78.1l3-58.1
				c-10.1-37.1-32.5-50.2-33.2-50.6c21.2,8.9,30.5,28.4,33.9,37.7l2-38.3h3.1l4.9,98.9c5.6-15.2,15.2-33.6,31.2-46.4
				c8.7-21.8,0.3-42-5.7-52.5h3c13.7,15.8,13.4,35.8,12,46.1c13.4-7.7,30.4-11.5,51.9-8.2c-9.3-1.2-45.1-2.4-73.6,39.1
				c40.1-31.2,73.5-16.7,73.5-16.7c-44.1-6.5-70.1,17.4-80.6,28.3c-3.9,7.1-7.6,15.1-10.9,24.3l3.9,79.5
				c9.7-14.5,24.1-31.2,44.8-45.9c14.9-15.8,35.2-44.1,34.7-75.6c0,0,9.2,34.4-17.7,64.9c10.2-5.7,21.6-10.9,34.4-15.2
				c6.7-6.7,23-26.4,18.4-57c0,0,11.1,31.4-7.2,53.5c11.1-3.2,23.2-5.7,36.4-7.4V221.5z"/>
		</g>
	</g>
	<g>
		<path fill="#00334A" d="M263.5,73.4c-108.3,0-196,87.8-196,196s87.8,196,196,196s196-87.8,196-196S371.8,73.4,263.5,73.4z
			 M263.5,448.4c-98.9,0-179-80.1-179-179s80.1-179,179-179s179,80.1,179,179S362.4,448.4,263.5,448.4z"/>
		<path fill="#00334A" d="M263.5,98.5c-94.4,0-170.9,76.5-170.9,170.9s76.5,170.9,170.9,170.9s170.9-76.5,170.9-170.9
			S357.9,98.5,263.5,98.5z"/>
		<g>
			<path fill="#98CB50" d="M96.9,264.4c-2,68,36.8,127.2,93.7,155c17.6,8.6,38.9,1,47.3-16.7c0.2-0.5,0.5-1,0.7-1.5
				c6.4-14.1,2.8-30.8-8.7-41.1l-64.8-58.2l-58.9-6.5l53.5,1.7l-54.4-48.8l56.6,43.7l-18.3-76.6l31.5,86.7l74.4,57.4
				c2.7-18.7,4.9-43.4,6.7-70.1c0.7-10.9-3.6-21.6-11.7-28.9l-47.1-42.3l-44.1-4.8l40.1,1.3l-40.7-36.6l42.4,32.8l-13.7-57.4
				l23.6,65l53.2,41.1c1.2-22.1,2.2-44.5,3-65c0.3-7.8-2-15.4-6.4-21.8l-27.2-38.7l34.3,42c1.1-31.8,1.6-62,1.8-73.3
				c-0.8,0-1.5,0-2.3,0C172.4,104.1,99.6,175.7,96.9,264.4z"/>
			<path fill="#46A368" d="M263.6,102.8c0.2,11.3,0.7,41.5,1.8,73.3l34.3-42l-27.2,38.7c-4.5,6.4-6.7,14-6.4,21.8
				c0.8,20.6,1.8,43,3,65l53.2-41.1l23.6-65l-13.7,57.4l42.4-32.8l-40.7,36.6l40.1-1.3l-44.1,4.8l-47.1,42.3
				c-8.1,7.3-12.5,18-11.7,28.9c1.8,26.7,4,51.4,6.7,70.1l74.4-57.4l31.5-86.7l-18.3,76.6l56.6-43.7l-54.4,48.8l53.5-1.7l-58.9,6.5
				L297.1,360c-11.5,10.4-15.1,27-8.7,41.1c0.2,0.5,0.4,1,0.7,1.4c8.5,17.9,30.1,25.2,47.8,16.5c55.2-27.1,93.3-83.9,93.3-149.6
				C430.1,177.4,355.6,102.9,263.6,102.8z"/>
		</g>
	</g>
	<g>
		<g>
			<path fill="#98CB50" d="M1120.1,124.1l1.7,34.8l87.7-42.2c-12.8-7.9-26.7-14.2-41.4-18.6L1120.1,124.1z"/>
			<path fill="#98CB50" d="M1119.9,119l45.2-21.8c-14.8-4.2-30.4-6.6-46.6-6.8L1119.9,119z"/>
			<path fill="#46A368" d="M1294.1,252.5c-2-20.9-7.5-40.8-16.1-59l-150.7,81.6l2.7,56.3L1294.1,252.5z"/>
			<path fill="#46A368" d="M1212.1,118.4l-89.9,48.7l1.8,37.9l121.9-58.6C1235.8,135.7,1224.5,126.3,1212.1,118.4z"/>
			<path fill="#98CB50" d="M1124.5,215.9l2.2,46.4l149.8-72c-7.5-15.1-17-29-28.2-41.3L1124.5,215.9z"/>
			<path fill="#FFFFFF" d="M1294.5,256.9l-163.8,88.7l3.1,65.4c1.2,20.5,21.6,34.3,41,27.6c70-24.3,120.2-90.8,120.2-169.1
				C1294.9,265.2,1294.8,261,1294.5,256.9z"/>
			<path fill="#46A368" d="M1107.4,216.5l-124.3-67.3c-11.2,12.3-20.6,26.3-28,41.4l150.1,72.2L1107.4,216.5z"/>
			<path fill="#98CB50" d="M1113.4,90.5c-16.4,0.2-32.3,2.6-47.4,7l46,22.1L1113.4,90.5z"/>
			<path fill="#46A368" d="M1111.7,124.8L1063,98.4c-14.6,4.5-28.4,10.8-41.2,18.7l88.3,42.5L1111.7,124.8z"/>
			<path fill="#98CB50" d="M1104.5,275.8L953.5,194c-8.4,18.2-13.9,38.1-15.8,59.1l164.2,79L1104.5,275.8z"/>
			<path fill="#98CB50" d="M1109.7,167.8l-90.6-49.1c-12.3,7.9-23.6,17.3-33.6,27.9l122.4,58.9L1109.7,167.8z"/>
			<path fill="#FFFFFF" d="M936.9,267.8c-0.7,78.9,49.7,146.1,120,170.6c19.4,6.8,39.9-7,41.1-27.6l3.1-64.7l-163.8-88.7
				C937.1,260.9,937,264.4,936.9,267.8z"/>
		</g>
		<path fill="#00334A" d="M1115.9,73.4c-108.3,0-196,87.8-196,196s87.8,196,196,196c108.3,0,196-87.8,196-196
			S1224.2,73.4,1115.9,73.4z M1120.1,124.1l48-26c14.7,4.5,28.5,10.8,41.4,18.6l-87.7,42.2L1120.1,124.1z M1119.9,119l-1.4-28.5
			c16.1,0.2,31.7,2.6,46.6,6.8L1119.9,119z M1124.5,215.9l123.7-67c11.2,12.3,20.8,26.2,28.2,41.3l-149.8,72L1124.5,215.9z
			 M1278.1,193.5c8.5,18.2,14.1,38.1,16.1,59l-164.1,79l-2.7-56.3L1278.1,193.5z M1245.9,146.3L1124,205l-1.8-37.9l89.9-48.7
			C1224.5,126.3,1235.8,135.7,1245.9,146.3z M955.1,190.6c7.4-15.1,16.9-29,28-41.4l124.3,67.3l-2.2,46.3L955.1,190.6z
			 M1104.5,275.8l-2.7,56.2l-164.2-79c1.9-21,7.3-40.8,15.8-59.1L1104.5,275.8z M1110.1,159.5l-88.3-42.5
			c12.7-7.9,26.6-14.2,41.2-18.7l48.8,26.4L1110.1,159.5z M1066,97.5c15.1-4.3,31-6.7,47.4-7l-1.4,29.1L1066,97.5z M1019.1,118.7
			l90.6,49.1l-1.8,37.8l-122.4-58.9C995.5,136,1006.7,126.6,1019.1,118.7z M1056.9,438.5c-70.4-24.5-120.7-91.8-120-170.6
			c0-3.5,0.2-6.9,0.4-10.3l163.8,88.7l-3.1,64.7C1096.9,431.5,1076.4,445.3,1056.9,438.5z M1174.8,438.5c-19.4,6.7-39.8-7.1-41-27.6
			l-3.1-65.4l163.8-88.7c0.3,4.1,0.4,8.3,0.4,12.6C1294.9,347.7,1244.7,414.2,1174.8,438.5z"/>
	</g>
	<g>
		<g>
			<g>
				<polygon fill="#46A368" points="397.1,670.4 397.1,704.3 414.4,687 414.4,653.1 				"/>
				<path fill="#46A368" d="M271.4,780.1l46.1-46.1h50l19.4-19.4h-0.1v-48.4l27.2-27.2c0.2,0.1,0.2,0.1,0.4,0.2v-7
					c0-0.2,0-0.4,0-0.6c-0.1-2-0.5-4-1.3-5.9l-71.2,71.3h-44.4l-16.2,16.2c-6.4,6.4-10,15-10,24.1V780.1z"/>
				<path fill="#46A368" d="M277.6,662.4c-4,4-6.2,9.3-6.2,14.9v31.1l21.9-21.9h44.4l69-69c0,0,0,0-0.1,0c-0.3-0.2-0.5-0.3-0.8-0.5
					l-3.5-2l-6.8-4l-46.7,46.7h-66.4L277.6,662.4z"/>
				<polygon fill="#46A368" points="301.3,638.7 292.6,647.4 344.3,647.4 386.1,605.7 381.6,603.2 334,575.6 301.3,608.5 				"/>
				<path fill="#46A368" d="M265.5,544.8c0.3,0,0.7,0.1,1,0.2c0.3,0.1,0.6,0.1,0.9,0.2c0.1,0,0.1,0,0.2,0.1c0.2,0.1,0.5,0.1,0.7,0.2
					c0.1,0,0.1,0,0.2,0.1c0.9,0.3,1.9,0.7,2.8,1.1V654l19.6-19.6v-30.2l17.5-17.5v-18.8l8.5,4.9l1.9,1.1v2.5l5.9-6.1l-4.3-2.5
					l-1.6-0.9l-1.9-1.1l-8.5-4.9v0l-36.3-21c-0.3-0.2-0.5-0.3-0.8-0.4c-0.9-0.5-1.8-0.8-2.8-1.1c-0.1,0-0.1,0-0.2-0.1
					c-0.2-0.1-0.5-0.1-0.7-0.2c-0.1,0-0.1,0-0.2-0.1c-0.3-0.1-0.6-0.1-0.9-0.2c-0.3-0.1-0.7-0.1-1-0.2c-0.3,0-0.6-0.1-0.9-0.1
					c-0.1,0-0.1,0-0.2,0v7c0.1,0,0.1,0,0.2,0C264.9,544.7,265.2,544.7,265.5,544.8z"/>
				<polygon fill="#46A368" points="321.8,744.2 297.5,768.6 325.1,796.2 364.5,796.2 388.5,772.2 414.4,772.2 414.4,701.6 
					371.7,744.2 				"/>
			</g>
			<g>
				<polygon fill="#98CB50" points="159.4,720.8 112.6,673.9 112.6,729.1 136.8,753.3 171.9,753.3 197.7,779.2 226.2,750.7 
					196.3,720.8 				"/>
				<path fill="#98CB50" d="M255.6,715.9c0-9-3.6-17.7-10-24.1l-18.4-18.4h-50l-56.2-56.2c-5.3,3.1-8.5,8.8-8.5,14.9v27.2l51.1,51.1
					h36.9l55,55V715.9z"/>
				<path fill="#98CB50" d="M261.5,537.8c-0.3,0-0.7,0.1-1,0.2c-0.3,0.1-0.6,0.1-0.9,0.2c-0.1,0-0.2,0-0.3,0.1
					c-0.2,0.1-0.5,0.1-0.7,0.2c-0.1,0-0.1,0-0.2,0.1c-0.6,0.2-1.2,0.4-1.8,0.7c-0.3,0.1-0.6,0.3-0.9,0.4l0,0
					c-0.3,0.1-0.5,0.3-0.8,0.4l-22.2,12.8l-4.4,2.5l27.4,27.5v-36.3l0,0c0.3-0.1,0.6-0.3,0.9-0.4c0.6-0.3,1.2-0.5,1.8-0.7
					c0.1,0,0.1,0,0.2-0.1c0.2-0.1,0.5-0.1,0.7-0.2c0.1,0,0.2-0.1,0.3-0.1c0.3-0.1,0.6-0.1,0.9-0.2c0.3-0.1,0.7-0.1,1-0.2
					c0.2,0,0.5-0.1,0.7-0.1c0.1,0,0.2,0,0.4,0v-7c-0.1,0-0.1,0-0.2,0C262.1,537.7,261.8,537.7,261.5,537.8z"/>
				<polygon fill="#98CB50" points="130.3,611.9 181.6,663.1 216.9,663.1 204.5,650.6 204.5,607.8 180,583.2 134.8,609.3 				"/>
				<path fill="#98CB50" d="M115.8,796.4h33.6l25.5-25.5l-7.3-7.3h-35.1l-20-20v42.7c0,1,0.1,2.1,0.3,3.1
					C113.3,792,114.3,794.3,115.8,796.4z"/>
				<path fill="#98CB50" d="M255.6,607.2c0-6.3-2.5-12.3-6.9-16.8L219,560.7l-25.4,14.6l-4.4,2.5l25.6,25.6v42.9l40.8,40.8V607.2z"
					/>
			</g>
		</g>
		<path fill="#00334A" d="M418.6,594.8l-133.5-77.1c-13.4-7.7-29.8-7.7-43.2,0l-133.5,77.1c-13.4,7.7-21.6,22-21.6,37.4v154.2
			c0,15.4,8.2,29.7,21.6,37.4l133.5,77.1c13.4,7.7,29.8,7.7,43.2,0l133.5-77.1c13.4-7.7,21.6-22,21.6-37.4V632.1
			C440.2,616.7,432,602.5,418.6,594.8z M424.7,786.3c0,9.9-5.3,19.1-13.8,24l-109.5,63.2c-9.7,5.6-22-0.7-23-11.9l-5.4-57
			c-1-10.8,2.8-21.5,10.5-29.1l6.7-6.7l30.7,30.7h47.9l24-24h21.6v-10.3h-25.9l-24,24h-39.4l-27.7-27.6l24.3-24.3h50l42.7-42.7V680
			l-17.3,17.3v-33.9l17.3-17.3v-14c-0.2-0.1-0.2-0.1-0.4-0.2l-27.2,27.2v48.4h0.1L367.5,727h-50l-46.1,46.1v-42.9
			c0-9,3.6-17.7,10-24.1l16.2-16.2h44.4l68.7-68.7c-0.3-0.4-0.7-0.8-1.1-1.2c-0.1-0.1-0.2-0.2-0.3-0.3c-0.2-0.2-0.4-0.4-0.6-0.5
			c-0.5-0.5-1.1-0.9-1.6-1.3c-0.1-0.1-0.3-0.2-0.4-0.3c-0.3-0.2-0.5-0.3-0.8-0.5l-3.5-2.1l0,0l-64.6,64.6h-44.4l-21.9,21.9v-31.1
			c0-5.6,2.2-11,6.2-14.9l4.7-4.7h66.4l42.3-42.3l-9.2-5.3l-37.3,37.3h-51.8l8.7-8.7v-30.2l28.4-28.4l-9.2-5.3l0,0l-1.6,1.6v-2.5
			l-1.9-1.1l-8.5-4.9v18.8L291,597.2v30.2l-19.6,19.6V539.5c-0.9-0.5-1.8-0.8-2.8-1.1c-0.1,0-0.1,0-0.2-0.1
			c-0.2-0.1-0.5-0.1-0.7-0.2c-0.1,0-0.1,0-0.2-0.1c-0.3-0.1-0.6-0.1-0.9-0.2c-0.3-0.1-0.7-0.1-1-0.2c-0.3,0-0.6-0.1-0.9-0.1
			c-0.4,0-0.8,0-1.2,0c-0.4,0-0.8,0-1.2,0.1c-0.2,0-0.5,0-0.7,0.1c-0.3,0-0.7,0.1-1,0.2c-0.3,0.1-0.6,0.1-0.9,0.2
			c-0.1,0-0.2,0-0.3,0.1c-0.2,0.1-0.5,0.1-0.7,0.2c-0.1,0-0.1,0-0.2,0.1c-0.6,0.2-1.2,0.4-1.8,0.7c-0.3,0.1-0.6,0.3-0.9,0.4l0,0
			v36.3l-23-23l-9.2,5.3l25.3,25.3c4.4,4.4,6.9,10.5,6.9,16.8v80l-40.8-40.8v-42.9l-21.2-21.2l-9.2,5.3l20.1,20.1v42.9l12.5,12.5
			h-35.4l-46.8-46.8l-9.3,5.3l51.8,51.8h50l18.4,18.4c6.4,6.4,10,15,10,24.1v49.6l-55-55h-36.9l-51.1-51.1V667l46.8,46.8h36.9
			l29.9,29.9l-28.5,28.5l-25.8-25.8h-35.1l-24.2-24.2v14.6l20,20h35.1l7.3,7.3l-25.5,25.5h-36.5c0.7,4,2.9,7.7,6,10.3h34.7
			l28.5-28.5l15.5,15.5l35.8-35.8l10.2,10.2c7.6,7.6,11.4,18.1,10.5,28.7l-5.9,71.4c-0.9,11.2-13.3,17.7-23,12.1l-109.1-63
			c-8.5-4.9-13.8-14.1-13.8-24V632.1c0-9.9,5.3-19,13.8-24l133.5-77.1c4.2-2.4,9-3.7,13.8-3.7c4.9,0,9.6,1.3,13.8,3.7l133.5,77.1
			c8.5,4.9,13.8,14.1,13.8,24V786.3z"/>
	</g>
	<g>
		<path fill="#003B50" d="M1328.3,847.7l-187.7-307.1c-11.2-18.4-38-18.4-49.2,0L903.6,847.7c-11.7,19.2,2.1,43.9,24.6,43.9h187.7
			h187.7C1326.2,891.6,1340,867,1328.3,847.7z"/>
		<path fill="#FFFFFF" d="M928.2,876.1c-7.1,0-10.5-4.8-11.7-6.8c-1.2-2.1-3.4-7.5,0.3-13.5l187.7-307.1c3.5-5.8,9.1-6.4,11.4-6.4
			c2.3,0,7.9,0.6,11.4,6.4l187.7,307.1c3.7,6,1.4,11.5,0.3,13.5c-1.2,2.1-4.6,6.8-11.7,6.8H928.2z"/>
		<path fill="#003B50" d="M1306.3,864.3c-0.9,1.6-2.1,1.6-2.7,1.6H928.2c-0.5,0-1.8,0-2.7-1.6c-0.9-1.6-0.2-2.6,0.1-3.1l187.7-307.1
			c0.2-0.4,0.9-1.5,2.6-1.5s2.4,1.1,2.6,1.5l187.7,307.1C1306.5,861.6,1307.2,862.7,1306.3,864.3z"/>
		<path fill="#98CB50" d="M1118.5,554.1c-0.2-0.4-0.9-1.5-2.6-1.5c-1.7,0-2.4,1.1-2.6,1.5L988.9,757.7
			c26.8,41.8,73.7,69.6,127.1,69.6c53.4,0,100.3-27.7,127.1-69.6L1118.5,554.1z"/>
		<polygon fill="#003B50" points="1127.3,865.8 1104.6,865.8 1115.9,552.6 		"/>
		<polygon fill="#003B50" points="1113.5,799.2 997.3,743.6 1113.8,811.4 		"/>
		<polygon fill="#003B50" points="1117.1,776.8 1218.3,717.3 1117.6,787.8 		"/>
		<polygon fill="#003B50" points="1112.4,744.7 1025.1,698.9 1112.7,736.1 		"/>
		<polygon fill="#003B50" points="1117.8,715.5 1190.3,671.5 1117.4,707.9 		"/>
		<polygon fill="#003B50" points="1114.9,693.5 1048.5,660.3 1115.3,687.4 		"/>
		<polygon fill="#003B50" points="1116.4,665 1167.9,635.8 1116,658.2 		"/>
		<polygon fill="#003B50" points="1116,643 1072.3,622.1 1116.7,638.7 		"/>
		<polygon fill="#003B50" points="1115.9,618.3 1147.7,602.3 1116,622.5 		"/>
		<polygon fill="#003B50" points="1040.3,766.6 1035.5,723.8 1044,768.9 		"/>
		<polygon fill="#003B50" points="1054.6,775.9 1020,789.9 1059.8,778.7 		"/>
		<polygon fill="#003B50" points="1078.4,784.4 1074.4,737.8 1083.4,787.2 		"/>
		<polygon fill="#003B50" points="1054.1,807.2 1088.7,792.9 1092.4,795.7 		"/>
		<polygon fill="#003B50" points="1136,771.6 1179.6,788.7 1139.5,769.6 		"/>
		<polygon fill="#003B50" points="1160.6,755.6 1206.4,769.9 1163.6,753.1 		"/>
		<polygon fill="#003B50" points="1144.3,762.6 1144.3,762.4 1152.1,724 1148.5,760.4 		"/>
		<polygon fill="#003B50" points="1173.1,745.6 1178.9,709.7 1176.1,744.1 		"/>
		<polygon fill="#003B50" points="1090.2,728.8 1084.9,695.7 1093.9,730 		"/>
		<polygon fill="#003B50" points="1075.6,723.8 1052.1,740.1 1073.4,722.8 		"/>
		<polygon fill="#003B50" points="1056.8,713.8 1053.8,689.9 1058.8,715 		"/>
		<polygon fill="#003B50" points="1135.8,703 1164.3,717 1138.5,701.5 		"/>
		<polygon fill="#003B50" points="1148.3,694.5 1154.8,665.9 1151.1,693.2 		"/>
		<polygon fill="#003B50" points="1162.3,686.9 1184.9,693 1165.3,685.9 		"/>
		<polygon fill="#003B50" points="1091.2,678.4 1086.4,655.6 1094.2,680.7 		"/>
		<polygon fill="#003B50" points="1080.9,675.2 1063.1,685.7 1083.1,676.7 		"/>
		<polygon fill="#003B50" points="1126.2,657.9 1147.3,665.1 1128.7,656.6 		"/>
		<polygon fill="#003B50" points="1139,650.1 1145.5,627 1141.5,648.6 		"/>
		<polygon fill="#003B50" points="1099.2,633.3 1096.7,613.3 1101.4,634.3 		"/>
		<polygon fill="#003B50" points="1126.7,613.5 1132.3,592.7 1128.7,613 		"/>
		<polygon fill="#003B50" points="1102.7,636.1 1086.4,645.3 1106.4,637.3 		"/>
		<polygon fill="#003B50" points="1115.2,597.7 1101.2,584.9 1116,596 		"/>
		<polygon fill="#003B50" points="1122.5,616 1136.8,623.5 1124.7,615.3 		"/>
	</g>
</g>
</svg>
